<svg xmlns="http://www.w3.org/2000/svg" width="256" height="256" viewBox="0 0 100 100"><rect width="100" height="100" rx="20" fill="#7d6ee7"></rect><path fill="#fff" d="M26.56 18.01L26.56 18.01Q32.63 18.01 36.73 19.54Q40.82 21.07 44.51 24.04L44.51 24.04L40.14 29.12Q37.22 26.65 33.96 25.59Q30.70 24.53 27.14 24.53L27.14 24.53Q22.06 24.53 17.74 26.94Q13.42 29.35 10.78 34.90Q8.15 40.46 8.15 49.96L8.15 49.96Q8.15 59.18 10.65 64.76Q13.15 70.34 17.42 72.82Q21.70 75.29 26.96 75.29L26.96 75.29Q32.18 75.29 35.53 73.72Q38.89 72.14 41.36 70.12L41.36 70.12L45.41 75.25Q42.58 77.99 38.03 79.99Q33.48 82.00 26.87 82.00L26.87 82.00Q19.36 82.00 13.26 78.31Q7.16 74.62 3.61 67.48Q0.05 60.35 0.05 49.96L0.05 49.96Q0.05 39.52 3.67 32.41Q7.30 25.30 13.35 21.65Q19.40 18.01 26.56 18.01ZM96.71 36.37L96.71 36.37Q96.71 41.00 94.71 44.47Q92.71 47.93 89.28 50.18Q85.87 52.43 81.59 53.47L81.59 53.47L99.95 80.96L90.59 80.96L73.67 54.37L65.30 54.37L65.30 80.96L57.47 80.96L57.47 19.00L73.40 19.00Q84.88 19.00 90.79 23.38Q96.71 27.77 96.71 36.37ZM88.34 36.37L88.34 36.37Q88.34 30.38 84.92 27.79Q81.50 25.21 74.30 25.21L74.30 25.21L65.30 25.21L65.30 48.25L74.30 48.25Q80.96 48.25 84.65 45.52Q88.34 42.80 88.34 36.37Z"></path></svg>